<?xml version="1.0" encoding="UTF-8" standalone="no" ?>
<!DOCTYPE svg PUBLIC "-//W3C//DTD SVG 1.1//EN" "http://www.w3.org/Graphics/SVG/1.1/DTD/svg11.dtd">
<svg xmlns="http://www.w3.org/2000/svg" xmlns:xlink="http://www.w3.org/1999/xlink" version="1.1" width="1280" height="1024" viewBox="0 0 1280 1024" xml:space="preserve">
<desc>Created with Fabric.js 5.3.0</desc>
<defs>
</defs>
<g transform="matrix(1 0 0 1 640 512)" id="background-logo"  >
<rect style="stroke: none; stroke-width: 0; stroke-dasharray: none; stroke-linecap: butt; stroke-dashoffset: 0; stroke-linejoin: miter; stroke-miterlimit: 4; fill: rgba(0, 0, 0, 1); fill-rule: nonzero; opacity: 1;"  paint-order="stroke"  x="-640" y="-512" rx="0" ry="0" width="1280" height="1024" />
</g>
<g transform="matrix(1.9211538461538462 0 0 1.9211538461538462 639.8607163461538 679.7638694028759)" id="text-logo"  >
<g style=""  paint-order="stroke"   >
		<g transform="matrix(1 0 0 1 0 0)" id="text-logo-path-0"  >
<linearGradient id="SVGID_986399" gradientUnits="userSpaceOnUse" gradientTransform="matrix(1 0 0 1 0.1700000000000017 -39.67)"  x1="-0.07250154876709303" y1="-11.318119999999965" x2="-0.07250154876709303" y2="54.681880000000035">
<stop offset="0%" style="stop-color:rgb(98,39,116);stop-opacity: 1"/>
<stop offset="100%" style="stop-color:rgb(197,51,100);stop-opacity: 1"/>
</linearGradient>
<path style="stroke: none; stroke-width: 0; stroke-dasharray: none; stroke-linecap: butt; stroke-dashoffset: 0; stroke-linejoin: miter; stroke-miterlimit: 4; fill: url(#SVGID_986399); fill-rule: nonzero; opacity: 1;"  paint-order="stroke"  transform=" translate(-74.965, 19.43)" d="M 29.23 0 L 39.56 0 L 25 -39.67 L 14.67 -39.67 L 0.17 0 L 10.5 0 L 13.05 -6.9 L 26.68 -6.9 Z M 16.36 -16.07 L 19.89 -25.64 L 23.32 -16.07 Z M 70.64 -13.34 L 70.64 -39.67 L 61.02 -39.67 L 61.02 -13.34 C 61.02 -9.98 57.77 -8.82 54.87 -8.82 C 52.2 -8.82 48.78 -10.21 48.78 -13.34 L 48.78 -39.67 L 39.15 -39.67 L 39.15 -13.34 C 39.15 -4.52 46.63 0.81 54.87 0.81 C 63.16 0.81 70.64 -4.7 70.64 -13.34 Z M 91.18 -12.76 L 98.31 0 L 109.33 0 L 101.04 -14.96 C 104.86 -17.46 107.07 -21.69 107.07 -26.22 C 107.07 -33.7 101.09 -39.67 93.67 -39.67 L 76.85 -39.67 L 76.85 0 L 86.54 0 L 86.54 -12.76 Z M 86.54 -21.92 L 86.54 -30.51 L 93.67 -30.51 C 96.11 -30.51 97.96 -28.65 97.96 -26.22 C 97.96 -23.9 95.99 -21.92 93.67 -21.92 Z M 139.43 0 L 149.76 0 L 135.2 -39.67 L 124.87 -39.67 L 110.37 0 L 120.7 0 L 123.25 -6.9 L 136.88 -6.9 Z M 126.56 -16.07 L 130.09 -25.64 L 133.52 -16.07 Z" stroke-linecap="round" />
</g>
</g>
</g>
<g transform="matrix(1.9211538461538462 0 0 1.9211538461538462 639.1275617140196 396.7955077779135)" id="shape-6857bd45-4a3c-46fe-8dd9-9f5d0d859725"  >
<g style=""  paint-order="stroke"   >
		<g transform="matrix(1 0 0 1 -0.00414499999999407 0)" id="path-03_00000158725419389239755160000017653909962178651811_"  >
<linearGradient id="SVGID_7_6_6_986396" gradientUnits="userSpaceOnUse" gradientTransform="matrix(1 0 0 1 0.0003300000000052705 0)"  x1="0" y1="0" x2="0" y2="217">
<stop offset="0%" style="stop-color:rgb(113,23,234);stop-opacity: 1"/>
<stop offset="100%" style="stop-color:rgb(234,96,96);stop-opacity: 1"/>
</linearGradient>
<path style="stroke: none; stroke-width: 1; stroke-dasharray: none; stroke-linecap: butt; stroke-dashoffset: 0; stroke-linejoin: miter; stroke-miterlimit: 4; fill: url(#SVGID_7_6_6_986396); fill-rule: nonzero; opacity: 1;"  paint-order="stroke"  transform=" translate(-124.995855, -108.257485)" d="M 238.89766 178.27875 L 238.83876 178.16913 L 238.83456 178.16913 L 238.82406 178.15102 L 238.83875 178.15102 L 225.72892000000002 155.45594 L 225.66338000000002 155.34234 L 225.66338000000002 155.34234 L 192.97939000000002 98.76154 L 182.00778 79.7515 L 182.00778 79.73337 L 181.95352 79.64298 L 181.82677999999999 79.40738999999999 L 181.80864999999997 79.40738999999999 L 135.9673 0 L 114.0243 0 L 103.05279999999999 19.01003 L 57.01231 98.74341 L 57.01231 98.76153 L 46.04081 117.77156 L 0.00033 197.50493 C 4.87052 205.95995 6.10164 208.07829 10.97183 216.51497 L 239.01988 216.51497 C 243.90808 208.06017 245.12118 205.95995 249.99138 197.50493 L 238.89766 178.27875 z M 125.05017 57.1205 L 137.92265 79.40738999999999 L 112.17769000000001 79.40738999999999 L 125.05017 57.1205 z M 55.16559 178.16913 L 68.03818 155.86391 L 80.91066 178.15102000000002 L 80.94193 178.16913000000002 L 55.16559 178.16913000000002 z M 125.19504 178.15102 L 124.99581 178.49490999999998 L 124.94155 178.40451999999996 L 124.8148 178.16913999999997 L 124.78939000000001 178.15102999999996 L 124.8148 178.15102999999996 L 89.94495 117.77156999999997 L 160.06479000000002 117.77156999999997 L 125.19504 178.15102 z M 182.06215 155.86391 L 194.93463 178.15102000000002 L 194.9395 178.16913000000002 L 169.18967 178.16913000000002 L 182.06215 155.86391 z" stroke-linecap="round" />
</g>
		<g transform="matrix(1 0 0 1 11.025980000000004 0.001764999999991801)" id="path-02_00000078735174615321608970000013552322048790232704_"  >
<linearGradient id="SVGID_8_7_7_986397" gradientUnits="userSpaceOnUse" gradientTransform="matrix(1 0 0 1 22.051960000000008 0.0035299999999978127)"  x1="0" y1="0" x2="0" y2="217">
<stop offset="0%" style="stop-color:rgb(248,77,158);stop-opacity: 1"/>
<stop offset="100%" style="stop-color:rgb(255,116,117);stop-opacity: 1"/>
</linearGradient>
<path style="stroke: none; stroke-width: 1; stroke-dasharray: none; stroke-linecap: butt; stroke-dashoffset: 0; stroke-linejoin: miter; stroke-miterlimit: 4; fill: url(#SVGID_8_7_7_986397); fill-rule: nonzero; opacity: 1;"  paint-order="stroke"  transform=" translate(-136.02598, -108.25925)" d="M 57.01231 136.7816 L 68.03818 155.86391 L 55.165589999999995 178.16913 L 43.99495999999999 197.50493 L 33.02345999999999 216.51497 L 32.244969999999995 215.13899 L 22.051959999999994 197.34227 L 57.01231 136.7816 z M 101.00695 98.74341 L 112.17769 79.40738999999999 L 125.05017 57.12049999999999 L 114.0243 38.02007 L 78.95532 98.74341 L 78.95532 98.76153 L 67.98382 117.77156 L 102.85367 178.15102 L 124.81479999999999 178.15102 L 89.94494999999999 117.77156 L 101.00694999999999 98.76153 L 101.00694999999999 98.74341 z M 136.07593 197.34227 L 146.26894 215.13899 L 147.04743 216.51497 L 158.01894 197.50493 L 169.18966999999998 178.16913 L 182.06214999999997 155.86391 L 171.03628999999998 136.7816 L 136.07593 197.34227 z M 239.02463 178.49402 L 228.04926 197.50405 L 239.02463 216.51409 C 243.90267 208.06525000000002 245.12218000000001 205.95289000000002 250 197.50405 L 239.02463 178.49402 z M 181.8175 79.40783 L 135.97337 0.0035299999999978127 L 124.99777999999999 19.01356 L 159.86654 79.40782 L 181.8175 79.40782 z M 192.98669 98.75379 L 182.01132 79.74376 L 171.03595 98.75379 L 182.01132 117.76382 L 182.01109000000002 117.76382 L 216.87985000000003 178.15807999999998 L 238.83081000000004 178.15807999999998 L 192.98669 98.75379 z" stroke-linecap="round" />
</g>
		<g transform="matrix(1 0 0 1 -5.487684999999999 9.505015)" id="path-01_00000051361858222933206750000001411837556694671793_"  >
<linearGradient id="SVGID_9_8_8_986398" gradientUnits="userSpaceOnUse" gradientTransform="matrix(1 0 0 1 0 19.01003)"  x1="0" y1="0" x2="0" y2="198">
<stop offset="0%" style="stop-color:rgb(101,121,155);stop-opacity: 1"/>
<stop offset="100%" style="stop-color:rgb(94,37,99);stop-opacity: 1"/>
</linearGradient>
<path style="stroke: none; stroke-width: 1; stroke-dasharray: none; stroke-linecap: butt; stroke-dashoffset: 0; stroke-linejoin: miter; stroke-miterlimit: 4; fill: url(#SVGID_9_8_8_986398); fill-rule: nonzero; opacity: 1;"  paint-order="stroke"  transform=" translate(-119.512315, -117.7625)" d="M 160.06479 117.77156 L 89.94495 117.77156 L 101.00695 98.76153 L 171.03629 98.76153 L 182.00779 117.77156 L 216.87765000000002 178.15102 L 194.93464 178.15102 L 182.06216 155.86390999999998 L 171.0363 136.78159999999997 L 170.31218 135.51412999999997 L 160.06479 117.77156 z M 22.05174 197.3363 L 0 197.4994 C 4.87008 205.95420000000001 6.10131 208.07254 10.97139 216.50944 L 33.022909999999996 216.50944 L 33.023129999999995 216.50944 L 32.23911 215.13920000000002 L 22.05174 197.3363 z M 57.01231 136.7816 L 68.03818 155.86391 L 80.91066 178.15102000000002 L 102.85365999999999 178.15102000000002 L 67.98380999999999 117.77156000000002 L 46.04080999999999 117.77156000000002 L 56.28818999999999 135.51413000000002 L 57.01231 136.7816 z M 228.04926 197.50404 L 158.02555999999998 197.50404 L 147.05019 216.51408 L 239.02463 216.51408 L 228.04926 197.50404 z M 136.07593 197.34227 L 114.0243 197.50493 L 43.99496 197.50493 L 33.02346 216.51497 L 147.04742 216.51497 L 146.26892999999998 215.13899 L 136.07593 197.34227 z M 114.0243 38.02007 L 125.05017 57.12049999999999 L 137.92265 79.40738999999999 L 159.86566 79.40738999999999 L 124.9958 19.01003 L 103.0528 19.01003 L 113.30018000000001 36.77072 L 114.0243 38.02007 z" stroke-linecap="round" />
</g>
</g>
</g>
</svg>