<?xml version="1.0" encoding="UTF-8" standalone="no" ?>
<!DOCTYPE svg PUBLIC "-//W3C//DTD SVG 1.1//EN" "http://www.w3.org/Graphics/SVG/1.1/DTD/svg11.dtd">
<svg xmlns="http://www.w3.org/2000/svg" xmlns:xlink="http://www.w3.org/1999/xlink" version="1.1" width="1280" height="1024" viewBox="0 0 1280 1024" xml:space="preserve">
<desc>Created with Fabric.js 5.3.0</desc>
<defs>
</defs>
<g transform="matrix(1 0 0 1 640 512)" id="background-logo"  >
<rect style="stroke: none; stroke-width: 0; stroke-dasharray: none; stroke-linecap: butt; stroke-dashoffset: 0; stroke-linejoin: miter; stroke-miterlimit: 4; fill: rgb(0,0,0); fill-rule: nonzero; opacity: 1;"  paint-order="stroke"  x="-640" y="-512" rx="0" ry="0" width="1280" height="1024" />
</g>
<g transform="matrix(4.7175722218964955 0 0 4.7175722218964955 639.1275617140196 511.5346995808106)" id="shape-83f0db9f-c7f5-4edc-953d-d6c8d08e267c"  >
<g style=""  paint-order="stroke"   >
		<g transform="matrix(1 0 0 1 -52.37745223051819 -9.9787560259301e-7)" id="path-05"  >
<linearGradient id="SVGID_linear-gradient_5_10_10_10_10_329496" gradientUnits="userSpaceOnUse" gradientTransform="matrix(1 0 0 1 0 0)"  x1="0.152064" y1="96.372585" x2="125.83052" y2="96.372585">
<stop offset="0%" style="stop-color:rgb(255,156,164);stop-opacity: 1"/>
<stop offset="100%" style="stop-color:rgb(137,45,168);stop-opacity: 1"/>
</linearGradient>
<path style="stroke: none; stroke-width: 0; stroke-dasharray: none; stroke-linecap: butt; stroke-dashoffset: 0; stroke-linejoin: miter; stroke-miterlimit: 4; fill: url(#SVGID_linear-gradient_5_10_10_10_10_329496); fill-rule: nonzero; opacity: 1;"  paint-order="stroke"  transform=" translate(-73.27466977493475, -96.37258419386467)" d="M 145.691735 101.026663 C 144.661034 97.555655 142.993615 94.402823 140.65938599999998 91.553213 C 139.50740799999997 90.17388 138.203881 88.855215 136.748741 87.612295 C 132.853233 84.307913 127.82088499999999 81.503836 121.606285 79.16948500000001 C 120.696922 78.83605000000001 119.77224 78.502554 118.83242 78.18431700000001 C 116.270836 77.32030300000001 114.163963 76.68364600000001 112.223777 76.183524 C 107.676475 75.016349 103.159568 74.409964 98.672874 74.15233500000001 C 102.26522 72.015189 105.630271 69.68083800000001 108.73757099999999 67.13439100000001 C 114.012351 62.859916000000005 118.52937999999999 58.039848000000006 122.121726 52.84081200000001 C 132.277183 38.12273300000001 133.762717 24.04137400000001 126.290061 13.20378800000001 C 119.832909 3.821219 106.9338 0.941275 97.232934 0.183402 C 85.152368 -0.7715540000000001 73.07174 2.032584 64.068139 7.898612 C 57.732263 12.021476 53.579125000000005 17.917777 52.639367 24.071769 C 52.169457 27.179008 52.502892 30.240897 53.579125 33.181449 C 47.834435 35.121574 40.96798 37.440726 40.149499 37.698417 C 30.751793999999997 40.714712999999996 19.959619 47.853995999999995 17.867883 58.903800000000004 C 16.821984999999998 64.466605 17.943628 69.60509400000001 21.141931 73.788566 C 24.779687 78.54808700000001 30.67605 81.53404900000001 37.011865 83.383354 C 32.99508 84.626274 28.099206000000002 86.475456 23.172998 89.143181 C 16.806787 92.56884 10.364831 97.358574 5.726648000000001 103.967278 C 0.891381 110.83367 -0.972999 118.867178 0.48214 126.582449 C 2.0130239999999997 134.7069 7.106041 141.997671 14.805992999999999 147.105764 C 25.325341 154.07817599999998 37.072472 156.20030699999998 49.016686 156.836904 L 49.077355 156.836904 C 48.395225999999994 159.140859 48.06173 161.490285 48.137597 163.79424 C 48.16787 165.461537 48.410424 167.128957 48.880273 168.735646 C 52.048181 179.800648 63.41634500000001 185.651479 69.91903 188.167653 C 77.709924 191.168813 86.24367600000001 192.745168 94.747155 192.745168 C 95.762658 192.745168 96.778222 192.714956 97.79372500000001 192.669423 C 105.05428400000001 192.351064 110.84444500000001 190.86565099999999 115.45235500000001 188.137319 C 122.03078500000001 184.226674 125.820153 177.572439 125.10768900000001 171.176015 C 124.48629000000001 165.673818 120.727135 160.55052700000002 114.22457100000001 156.321584 C 101.41640400000001 148.015188 86.83480000000002 146.757192 72.34420000000001 146.560109 C 78.49819200000002 143.63469400000002 85.42519400000002 142.16435700000002 92.71596500000001 140.951772 C 94.534935 140.633474 96.368919 140.345449 98.23336 140.057424 C 105.084495 138.981313 112.057029 137.88994399999999 118.756675 135.828542 C 123.046287 134.525014 127.214622 132.812185 131.170737 130.462758 C 134.747885 128.340688 138.128134 125.47588100000002 140.795737 122.110951 C 145.464316 116.229786 147.980551 108.80254 145.691733 101.026661 Z M 29.569542 67.34661 C 28.205344999999998 65.558036 27.796042999999997 63.496634 28.296287999999997 60.874258999999995 C 29.448265999999997 54.811271 36.693566 49.945730999999995 43.378074999999995 47.808462999999996 C 44.878685 47.33861399999999 62.35530899999999 41.41204 63.098107 41.154287999999994 C 64.750207 40.593436 66.023522 39.25957399999999 66.508568 37.577079 C 66.978417 35.894645 66.59951 34.090872999999995 65.477867 32.741813 C 63.568016 30.437919 62.779747 28.058219 63.12838000000001 25.663261 C 63.613426000000004 22.495292 66.068932 19.266838 69.858299 16.796135 C 75.99715400000001 12.794487 84.106468 10.596611 92.549278 10.596611 C 93.82247100000001 10.596611 95.110924 10.657219 96.399254 10.748161 C 102.462303 11.233207 113.254479 12.976371 117.559288 19.221306 C 124.01638 28.603873999999998 117.710777 40.532829 113.390953 46.808098 C 108.02510799999999 54.599114 100.128075 61.389702 90.472679 66.588738 C 89.654137 67.04345 88.835655 67.483086 87.986839 67.892266 C 81.741905 70.999566 75.118065 73.394463 68.479027 75.395257 C 63.264794 75.698419 58.171898 75.834832 53.048607000000004 75.425591 C 41.362084 74.516106 32.798058000000005 71.560479 29.569542000000006 67.346612 Z M 108.449547 165.234244 C 112.087425 167.58366999999998 114.315514 170.19072599999998 114.55800599999999 172.358328 C 114.80055999999999 174.540945 112.95131699999999 177.284536 110.04109899999999 178.997244 C 106.96413399999999 180.83135 102.81087399999998 181.831839 97.32387499999999 182.07426999999998 C 89.26003199999998 182.422903 81.10530799999998 181.119375 73.73866999999998 178.269705 C 65.81130199999998 175.207876 60.460593999999986 170.660574 59.08132099999999 165.81023199999998 C 58.77815899999999 164.74919699999998 58.67201899999999 163.67296399999998 58.717550999999986 162.59685299999998 C 58.82362999999999 160.747549 59.414816999999985 158.88322999999997 60.36965099999998 157.124868 L 64.61385299999998 157.124868 C 80.75661399999998 157.140066 95.98995199999997 157.140066 108.44954599999997 165.234243 Z M 129.230614 118.852042 C 128.124047 119.7918 126.956993 120.625541 125.759484 121.337882 C 120.363366 124.551261 114.269982 126.339835 107.75228200000001 127.65856099999999 C 104.144738 128.386161 100.40090300000001 128.977287 96.596337 129.568412 C 86.334618 131.175162 75.739464 132.842521 66.235741 137.738395 C 65.523278 138.10216499999999 64.826012 138.481071 64.12880700000001 138.890373 C 60.50612600000001 140.997307 57.39882700000001 143.574028 54.92812300000001 146.438835 C 42.347373000000005 146.166008 30.585105000000006 144.83214600000002 20.671958000000004 138.25377600000002 C 15.366843000000003 134.75231100000002 11.910972000000003 129.901969 10.910605000000004 124.61199100000002 C 9.985922000000004 119.67058500000002 11.198508000000004 114.65343400000002 14.412009000000005 110.07579700000002 C 21.839133000000004 99.51091700000002 35.76894300000001 94.59990600000002 43.196189000000004 92.64458400000002 C 43.954063000000005 92.44756300000002 44.666465 92.26567800000002 45.272788000000006 92.12920300000002 L 49.168296000000005 91.23497700000001 C 55.913352 89.68883400000001 63.098106 88.02153700000001 70.358543 85.89946700000002 C 72.55641899999999 85.76311400000002 74.72395999999999 85.59630500000002 76.876304 85.42955700000002 C 88.25966600000001 84.56560400000002 99.006431 83.74712300000002 109.571189 86.46025800000001 C 109.798606 86.52098800000002 110.010703 86.581596 110.25331800000001 86.642143 C 111.76906500000001 87.051445 113.45149900000001 87.566826 115.46749000000001 88.24889300000001 C 122.40969000000001 90.583183 127.48744800000001 93.31151500000001 130.88271200000003 96.615897 C 133.17153000000002 98.798575 134.70247500000002 101.269278 135.52095700000004 104.027945 C 137.11251000000004 109.4392 133.77791500000004 115.002005 129.23061300000003 118.852042 Z" stroke-linecap="round" />
</g>
		<g transform="matrix(1 0 0 1 -1.3781065054529194 11.12643680825974)" id="path-04"  >
<linearGradient id="SVGID_linear-gradient-2_6_11_11_11_11_329497" gradientUnits="userSpaceOnUse" gradientTransform="matrix(1 0 0 1 0 0)"  x1="107.752267" y1="107.499022" x2="140.795763" y2="107.499022">
<stop offset="0%" style="stop-color:rgb(137,45,168);stop-opacity: 1"/>
<stop offset="100%" style="stop-color:rgb(100,33,122);stop-opacity: 1"/>
</linearGradient>
<path style="stroke: none; stroke-width: 0; stroke-dasharray: none; stroke-linecap: butt; stroke-dashoffset: 0; stroke-linejoin: miter; stroke-miterlimit: 4; fill: url(#SVGID_linear-gradient-2_6_11_11_11_11_329497); fill-rule: nonzero; opacity: 1;"  paint-order="stroke"  transform=" translate(-124.27401550000002, -107.49902200000001)" d="M 136.748716 87.61229 C 132.853208 84.30795 127.820882 81.503835 121.606313 79.169509 C 117.544094 81.18549200000001 113.724355 83.701609 110.253304 86.642183 C 111.769062 87.051467 113.45153 87.566865 115.467514 88.24888200000001 C 122.40970999999999 90.58320800000001 127.48746 93.311553 130.882743 96.61589300000001 C 131.53450800000002 96.16118400000002 132.216617 95.73672800000001 132.898726 95.32753600000001 C 135.36941800000002 93.85720300000001 137.961304 92.58401900000001 140.659397 91.553222 C 139.507406 90.173923 138.203877 88.85522200000001 136.748717 87.612289 Z M 135.899896 121.534951 C 134.641791 121.277298 133.383779 120.89835900000001 132.11050200000003 120.35261600000001 C 131.12531500000003 119.92825200000001 130.15520800000002 119.42802600000002 129.23061800000002 118.85203100000001 C 128.12405200000003 119.79179300000001 126.95698200000002 120.62553400000002 125.75947400000003 121.33789600000001 C 120.36338100000003 124.55129500000001 114.27000600000002 126.33987700000002 107.75226700000002 127.65857900000002 C 108.75271900000001 128.96220100000002 109.91978900000002 130.12927100000002 111.17789400000002 131.175148 C 113.48187500000002 133.039593 116.08893400000002 134.50983300000001 118.75668200000003 135.82853500000002 C 123.04630200000003 134.52500600000002 127.21463500000003 132.812192 131.17074000000002 130.46278700000002 C 134.74790600000003 128.34068900000003 138.12810800000003 125.47588500000002 140.79576400000002 122.11094800000002 C 139.12846800000003 122.00483400000002 137.521768 121.86837500000003 135.899897 121.53495300000002 Z" stroke-linecap="round" />
</g>
		<g transform="matrix(1 0 0 1 -59.69684200545293 18.818924308259717)" id="path-03"  >
<linearGradient id="SVGID_linear-gradient-3_7_12_12_12_12_329498" gradientUnits="userSpaceOnUse" gradientTransform="matrix(1 0 0 1 0 0)"  x1="23.173013" y1="115.19151" x2="108.737546" y2="115.19151">
<stop offset="0%" style="stop-color:rgb(199,100,153);stop-opacity: 1"/>
<stop offset="100%" style="stop-color:rgb(121,40,148);stop-opacity: 1"/>
</linearGradient>
<path style="stroke: none; stroke-width: 0; stroke-dasharray: none; stroke-linecap: butt; stroke-dashoffset: 0; stroke-linejoin: miter; stroke-miterlimit: 4; fill: url(#SVGID_linear-gradient-3_7_12_12_12_12_329498); fill-rule: nonzero; opacity: 1;"  paint-order="stroke"  transform=" translate(-65.95528, -115.1915095)" d="M 70.358554 85.899476 C 63.098109 88.021574 55.91334 89.68887000000001 49.168293 91.23497200000001 L 45.272785 92.12921700000001 C 44.666444999999996 92.26567600000001 43.954083 92.44755900000001 43.196205 92.64461500000002 C 34.814021 91.65933600000001 28.114399 90.34063400000002 23.173014 89.14321900000002 C 28.099225999999998 86.47547100000001 32.995093 84.62629100000001 37.011888 83.38335900000001 C 37.011888 83.38335900000001 49.986768999999995 86.33910500000002 70.358554 85.899476 Z M 90.472686 66.58874 C 89.654118 67.043449 88.83564199999999 67.483078 87.98682099999999 67.892269 C 81.741907 70.999554 75.11805399999999 73.394476 68.479029 75.395287 C 77.66451599999999 75.107289 86.713544 73.439993 98.672894 74.152355 C 102.265232 72.015178 105.630262 69.680852 108.737546 67.13439 C 102.113693 67.331446 95.883951 67.058621 90.472686 66.58873899999999 Z M 66.235738 137.738403 C 65.523284 138.10217 64.826002 138.481109 64.128813 138.89039400000001 C 60.50612999999999 140.997319 57.39884599999999 143.57403300000001 54.928152999999995 146.438837 C 60.718357999999995 146.666238 64.96246099999999 146.31755 72.34419299999999 146.560124 C 78.49816499999999 143.634723 85.42518799999999 142.16439 92.71597799999999 140.951803 C 84.561195 139.754388 73.920547 138.55688 66.235738 137.738404 Z M 49.077351 156.836912 C 48.395242 159.140893 48.061727 161.49029900000002 48.137589 163.79428000000001 C 50.926531 163.26380200000003 54.594639 162.73323100000002 58.717546999999996 162.596865 C 58.823660999999994 160.747593 59.414829 158.88324 60.369671 157.12491 C 55.761801 156.867257 51.457102 156.988544 49.07735099999999 156.836912 Z" stroke-linecap="round" />
</g>
		<g transform="matrix(1 0 0 1 52.376011814792506 0)" id="path-02"  >
<linearGradient id="SVGID_linear-gradient-4_8_13_13_13_13_329499" gradientUnits="userSpaceOnUse" gradientTransform="matrix(1 0 0 1 0 0)"  x1="251.508976" y1="96.372585" x2="112.720177" y2="96.372585">
<stop offset="0%" style="stop-color:rgb(255,156,164);stop-opacity: 1"/>
<stop offset="100%" style="stop-color:rgb(137,45,168);stop-opacity: 1"/>
</linearGradient>
<path style="stroke: none; stroke-width: 0; stroke-dasharray: none; stroke-linecap: butt; stroke-dashoffset: 0; stroke-linejoin: miter; stroke-miterlimit: 4; fill: url(#SVGID_linear-gradient-4_8_13_13_13_13_329499); fill-rule: nonzero; opacity: 1;"  paint-order="stroke"  transform=" translate(-178.02813382024544, -96.37258519174027)" d="M 245.577599 103.967276 C 240.939415 97.358572 234.49746 92.568838 228.131249 89.143179 C 223.205041 86.475454 218.309166 84.626272 214.292382 83.383352 C 220.628197 81.534048 226.52456 78.548086 230.162316 73.78856400000001 C 233.360619 69.60509200000001 234.482262 64.466604 233.436364 58.90379800000001 C 231.344628 47.85399300000001 220.55245299999999 40.71471100000001 211.15474799999998 37.69841500000001 C 210.336267 37.440725000000015 203.469811 35.121572000000015 197.72512199999997 33.18144700000001 C 198.80135499999997 30.240895000000013 199.13478999999998 27.17900600000001 198.66487999999998 24.071767000000012 C 197.72512199999997 17.917775000000013 193.571984 12.021474000000012 187.23610799999997 7.898610000000012 C 178.232506 2.032584 166.151879 -0.771554 154.071312 0.183402 C 144.37044500000002 0.941276 131.471336 3.821219 125.014183 13.203788 C 117.541527 24.041373 119.027061 38.122733 129.18251800000002 52.840812 C 132.774864 58.039848 137.29189300000002 62.859916 142.566673 67.134391 C 145.67397300000002 69.68083899999999 149.039024 72.01518899999999 152.63137 74.152335 C 148.144676 74.40996399999999 143.627769 75.01634899999999 139.080467 76.18352399999999 C 137.140281 76.683646 135.033409 77.320304 132.471824 78.184317 C 124.968772 80.70043 119.011863 83.82286699999999 114.555503 87.61229599999999 C 110.099204 91.40166399999998 107.143455 95.85802399999999 105.61251 101.02666399999998 C 102.005027 113.24376599999998 110.296226 124.61199099999999 120.133506 130.46275999999997 C 130.273948 136.49547499999997 141.854331 138.29918599999996 153.070884 140.05742599999996 C 154.935325 140.34545099999997 156.769309 140.63347599999997 158.588279 140.95177399999997 C 165.87905 142.16435899999996 172.806052 143.63469599999996 178.960044 146.56011099999998 C 164.469443 146.75719399999997 149.887839 148.01518899999996 137.079673 156.32158599999997 C 130.57711 160.55052899999995 126.81795400000001 165.67381999999998 126.19655500000002 171.17601699999997 C 125.48409200000002 177.57243999999997 129.27345900000003 184.22667599999997 135.85188900000003 188.137321 C 140.45979900000003 190.86565399999998 146.24996000000002 192.35106599999997 153.51051900000002 192.669425 C 154.526022 192.714957 155.54158600000002 192.74517 156.55708900000002 192.74517 C 165.06056800000002 192.74517 173.59432 191.168815 181.38521400000002 188.167655 C 187.88790000000003 185.651481 199.256064 179.800651 202.42397100000002 168.735648 C 202.89382000000003 167.128959 203.13637300000002 165.461539 203.166647 163.794242 C 203.242514 161.490287 202.909018 159.140861 202.226889 156.836906 L 202.287558 156.836906 C 214.23177199999998 156.200309 225.978903 154.078178 236.49825099999998 147.105766 C 244.19820199999998 141.997673 249.29121999999998 134.706901 250.82210399999997 126.58245099999999 C 252.27724299999997 118.86717999999999 250.41286299999996 110.83367199999999 245.57759699999997 103.967278 Z M 137.913292 46.808096 C 133.593468 40.532827 127.28786500000001 28.603872 133.744957 19.221304 C 138.049767 12.97637 148.841942 11.233206 154.904991 10.748159 C 156.193321 10.657217 157.481773 10.596608999999999 158.754967 10.596608999999999 C 167.197777 10.596608999999999 175.30709099999999 12.794484999999998 181.445946 16.796132999999998 C 185.235314 19.266835999999998 187.690819 22.495290999999998 188.175865 25.663258999999996 C 188.524498 28.058216999999996 187.73622899999998 30.437916999999995 185.82637799999998 32.741811 C 184.70473499999997 34.090871 184.32582899999997 35.894643 184.79567699999998 37.577076999999996 C 185.280723 39.259572 186.554039 40.593433999999995 188.20613799999998 41.154286 C 188.94893599999997 41.412037 206.425559 47.338612 207.92616999999998 47.808461 C 214.61067899999998 49.945729 221.85598 54.811269 223.00795699999998 60.874257 C 223.50820099999999 63.496632 223.098899 65.558034 221.73470299999997 67.346608 C 218.50618699999995 71.560475 209.94216099999997 74.516103 198.25563799999998 75.42558700000001 C 193.13234699999998 75.834828 188.03945099999999 75.69841400000001 182.82521799999998 75.39525300000001 C 176.18617999999998 73.39446000000001 169.56233999999998 70.99956200000001 163.31740599999998 67.89226200000002 C 162.46858999999998 67.48308200000001 161.650109 67.04344600000002 160.83156599999998 66.58873400000002 C 151.17616999999998 61.38969800000002 143.279137 54.59911000000002 137.91329199999998 46.80809400000002 Z M 192.222924 165.810233 C 190.84365200000002 170.66057500000002 185.492944 175.207877 177.565575 178.269706 C 170.198937 181.11937600000002 162.04421299999998 182.42290400000002 153.98037 182.074271 C 148.49337 181.831839 144.34011099999998 180.831351 141.263146 178.99724500000002 C 138.35292900000002 177.28453700000003 136.50368600000002 174.54094600000002 136.746239 172.35832900000003 C 136.988732 170.190726 139.21682 167.58367100000004 142.854698 165.23424500000002 C 155.31429300000002 157.140068 170.54763000000003 157.140068 186.690391 157.12487000000002 L 190.934593 157.12487000000002 C 191.889427 158.88323200000002 192.480614 160.74755100000002 192.586693 162.596855 C 192.632225 163.672966 192.526085 164.749199 192.222923 165.810234 Z M 240.393639 124.61199 C 239.393273 129.901968 235.937401 134.75231 230.63228600000002 138.25377500000002 C 220.719139 144.83214400000003 208.95687100000004 146.166006 196.376121 146.438834 C 193.90541800000003 143.574027 190.79811800000002 140.997306 187.17543700000002 138.890372 C 186.47823200000002 138.48107000000002 185.780967 138.10216400000002 185.06850300000002 137.738394 C 175.56478 132.84252 164.969626 131.175162 154.70790700000003 129.568411 C 144.02187200000003 127.90111399999999 133.92684000000003 126.324698 125.54476000000004 121.337881 C 119.45137600000004 117.7152 113.79762900000004 110.757925 115.78328500000003 104.02794399999999 C 117.81435200000004 97.17668699999999 124.19570000000003 92.15953599999999 135.83675200000005 88.24889099999999 C 138.15590500000005 87.46074399999999 140.03542100000004 86.89989199999998 141.73305300000004 86.46025599999999 C 152.29781100000005 83.74712099999999 163.04457600000003 84.56560299999998 174.42793800000004 85.429555 C 176.58028200000004 85.59630299999999 178.74782300000004 85.76311199999999 180.94569900000005 85.89946499999999 C 188.20613600000004 88.02153499999999 195.39088900000004 89.68883299999999 202.13594600000005 91.23497499999999 L 206.03145400000005 92.129201 C 206.63777700000006 92.265676 207.35018000000005 92.44756 208.10805300000004 92.644582 C 215.53529900000004 94.599904 229.46510900000004 99.510915 236.89223300000003 110.075795 C 240.10573400000004 114.653432 241.31831900000003 119.670583 240.39363700000004 124.611989 Z" stroke-linecap="round" />
</g>
		<g transform="matrix(1 0 0 1 59.69684449454709 18.81892430825974)" id="path-01"  >
<linearGradient id="SVGID_linear-gradient-5_9_14_14_14_14_329500" gradientUnits="userSpaceOnUse" gradientTransform="matrix(-1 -1.2246e-16 -1.2246e-16 1 259.570046 0)"  x1="31.438813" y1="115.19151" x2="117.003346" y2="115.19151">
<stop offset="0%" style="stop-color:rgb(199,100,153);stop-opacity: 1"/>
<stop offset="100%" style="stop-color:rgb(114,38,140);stop-opacity: 1"/>
</linearGradient>
<path style="stroke: none; stroke-width: 0; stroke-dasharray: none; stroke-linecap: butt; stroke-dashoffset: 0; stroke-linejoin: miter; stroke-miterlimit: 4; fill: url(#SVGID_linear-gradient-5_9_14_14_14_14_329500); fill-rule: nonzero; opacity: 1;"  paint-order="stroke"  transform=" translate(-185.34896650000002, -115.19150950000001)" d="M 214.292359 83.383359 C 218.309154 84.626291 223.20502100000002 86.475471 228.131233 89.143219 C 223.189849 90.34063400000001 216.490226 91.659336 208.108042 92.644615 C 207.350163 92.447559 206.63780200000002 92.265676 206.031462 92.129217 L 202.135954 91.234972 C 195.390907 89.68887 188.206138 88.021573 180.945693 85.89947599999999 C 201.317478 86.33910499999999 214.292359 83.383359 214.292359 83.383359 Z M 142.5667 67.13439 C 145.673985 69.680852 149.039014 72.015177 152.631352 74.152355 C 164.590701 73.439993 173.63973 75.10729 182.82521699999998 75.395287 C 176.18619099999998 73.394476 169.56233799999998 70.99955299999999 163.317425 67.892269 C 162.468604 67.483077 161.650129 67.043448 160.83156 66.58874 C 155.42029399999998 67.058621 149.190553 67.331446 142.5667 67.13439100000001 Z M 158.588268 140.951802 C 165.879058 142.16439 172.806081 143.63472199999998 178.960053 146.56012299999998 C 186.341785 146.31754999999998 190.58588799999998 146.66623699999997 196.376093 146.43883599999998 C 193.90540099999998 143.574032 190.798116 140.99731799999998 187.175433 138.890393 C 186.478244 138.48110899999998 185.780962 138.10216899999998 185.068508 137.73840199999998 C 177.383699 138.55687799999998 166.743051 139.75438499999998 158.588268 140.951801 Z M 190.934575 157.124909 C 191.889417 158.88324 192.480585 160.747592 192.58669899999998 162.596864 C 196.70960799999997 162.73323000000002 200.377715 163.263801 203.166657 163.79427900000002 C 203.242519 161.49029800000002 202.90900399999998 159.140892 202.22689499999998 156.83691100000001 C 199.84714499999998 156.98854200000002 195.542445 156.86725600000003 190.934575 157.124909 Z" stroke-linecap="round" />
</g>
</g>
</g>
</svg>