<?xml version="1.0" encoding="UTF-8" standalone="no" ?>
<!DOCTYPE svg PUBLIC "-//W3C//DTD SVG 1.1//EN" "http://www.w3.org/Graphics/SVG/1.1/DTD/svg11.dtd">
<svg xmlns="http://www.w3.org/2000/svg" xmlns:xlink="http://www.w3.org/1999/xlink" version="1.1" width="1280" height="1024" viewBox="0 0 1280 1024" xml:space="preserve">
<desc>Created with Fabric.js 5.3.0</desc>
<defs>
</defs>
<g transform="matrix(1 0 0 1 640 512)" id="background-logo"  >
<rect style="stroke: none; stroke-width: 0; stroke-dasharray: none; stroke-linecap: butt; stroke-dashoffset: 0; stroke-linejoin: miter; stroke-miterlimit: 4; fill: rgba(0, 0, 0, 1); fill-rule: nonzero; opacity: 1;"  paint-order="stroke"  x="-640" y="-512" rx="0" ry="0" width="1280" height="1024" />
</g>
<g transform="matrix(1.9211538461538462 0 0 1.9211538461538462 640 404.06477403846145)" id="logo-logo"  >
<g style=""  paint-order="stroke"   >
		<g transform="matrix(0.3523781404439549 0 0 0.3523781404439549 32.742842407547016 -2.842171e-14)"  >
<linearGradient id="SVGID_940175" gradientUnits="userSpaceOnUse" gradientTransform="matrix(1 0 0 1 466.3593916999998 220.9268180331801)"  x1="0" y1="0" x2="0" y2="603">
<stop offset="0%" style="stop-color:rgb(113,23,234);stop-opacity: 1"/>
<stop offset="100%" style="stop-color:rgb(234,96,96);stop-opacity: 1"/>
</linearGradient>
<path style="stroke: none; stroke-width: 1; stroke-dasharray: none; stroke-linecap: butt; stroke-dashoffset: 0; stroke-linejoin: miter; stroke-miterlimit: 4; fill: url(#SVGID_940175); fill-rule: nonzero; opacity: 1;"  paint-order="stroke"  transform=" translate(-552.7470529076568, -522.42871616659)" d="M 631.8395693 501.6705541 C 627.1082334 507.0426757 620.776162 510.6924707 614.5631259 514.2485904 C 612.1214759000001 518.5594199 613.0687456 522.9666768 614.5099483 527.7081371 C 615.9484969 532.4494991 617.3999222 537.7608743000001 615.150734 542.1757 C 613.6513407000001 545.1187533 610.7385623 547.0842619 607.7371217000001 548.4570512 C 606.1363862000001 548.3177671 604.3785751000001 549.2194279 604.8395790000001 550.7594171000001 C 605.3030404000001 552.2968506000001 606.5289767 553.4821911 607.2128157000001 554.9360738 C 608.4361964000001 557.5322437 607.7649392000001 560.7033416 606.2199370000001 563.1220889 C 604.6773921 565.5410328 602.3802359000001 567.3646033 600.1233806 569.1402058 C 599.7410127 573.8283901 596.2937056000001 577.4403415 595.9113377 582.1285258 C 595.2249431 590.5324611000001 594.4118460999999 599.3265297 589.80967 606.3956177 C 584.2476422999999 614.9439485 573.9212516 619.4422267 563.7670739 620.4047323 C 553.6129945 621.3672378 543.446235 619.2776808 533.4592572 617.2007055 C 533.4003784 617.1885169000001 533.3414997 617.17623 533.2826209 617.1640414 C 523.3544236 615.1005326 513.3554538 620.3701324 509.4564808 629.7310686999999 C 506.68682 636.3806332999999 503.86525950000004 643.0285267999999 501.543038 649.6918526999999 L 604.2494153 823.9306142999999 L 528.2643617 823.9306142999999 L 519.9238267 795.4716299999999 C 519.9238267 795.4716299999999 522.5579385 721.1609348999999 518.8701033 720.6340733 C 515.1797124 720.1072115999999 471.9645709 706.4045811 472.4914326 704.8240943999999 C 472.6940188 704.2186949 476.6806711 697.742228 481.5234736 689.9791766999999 C 493.1744889 671.3095969999999 486.9336354 651.7156502999999 474.0288661 636.8985501 C 489.9932666 635.031828 503.45782640000004 627.2889272 511.11963380000003 615.5163208 C 517.9658868 604.9974683 519.0879253 593.0526489 519.8173732 584.1472121 C 519.9845731 583.7470528 520.2708085 583.1239602 520.4961991 582.6376944000001 C 521.0229625000001 581.4953089 521.6638465 580.1072839000001 522.2615789 578.4914109000001 C 524.0878034 576.7740974000001 525.9645515 574.6972204000001 527.6083403 572.1213976000001 C 530.5920878000001 567.4482524000001 532.028179 562.2154150000001 531.8609791 557.1117373000002 C 532.0964941 556.8837910000002 532.3296501 556.6532890000002 532.5550407000001 556.4203296000002 L 535.4247659 556.4203296000002 C 538.0285045 559.6724227000002 542.0278369 561.7569666000002 546.5159907 561.7569666000002 L 558.3729343 561.7569666000002 C 566.2296609 561.7569666000002 572.7566514 555.4669655000001 572.7864349 547.6103372000001 C 572.8013758000001 543.6677211000001 571.2079140000001 540.0954810000001 568.6275696 537.5152348000001 C 566.0568581 534.9469807000002 562.5083071 533.3563695000001 558.5849568 533.3563695000001 L 546.5159907 533.3563695000001 C 544.2770251 533.3563695000001 542.1569966 533.8755642000001 540.2724832 534.8000295000002 C 540.0041376 530.5677378000001 538.9910101 526.8190579000002 538.1475399 523.9924843000001 C 542.7725204999999 521.0188612000001 547.5519227 517.4121195000001 551.6804146999999 512.7213795000001 C 554.0992603 509.97825840000013 558.5393477999999 504.34270600000013 561.1076019 497.4407197000001 C 564.891668 487.2688489000001 563.3543328 477.3883247000001 556.8930032999999 470.3318185000001 C 542.8940130999999 455.0411326000001 532.5322361999999 435.3888477000001 526.7598569999999 413.2594283000001 C 535.1208373999999 390.10685530000006 537.8384999999998 364.6898583000001 534.6142244999999 339.38939010000007 C 531.1517798999998 312.19683970000006 521.0078248999998 286.59755450000006 505.28650819999984 265.3546094000001 C 494.70936669999986 251.06442000000007 481.6197043999998 238.68646330000007 466.35939169999983 228.5500279000001 C 477.3443594999998 221.59235740000008 491.0089497999998 219.02154760000008 504.47350949999986 222.4104674000001 C 536.1009376999999 230.3686345000001 565.1221699999999 249.0457829000001 584.5490149999998 275.2985339000001 C 613.1346033999998 313.9191663000001 619.9757450999998 367.6025876000001 601.9876452999998 412.1602434000001 C 607.8511439999999 437.95965740000014 619.4008170999998 462.1077140000001 637.2649667999998 481.62066550000014 C 642.1001022999998 486.90161840000013 636.5708068999998 496.30098810000015 631.8395692999998 501.67055400000015 Z" stroke-linecap="round" />
</g>
		<g transform="matrix(0.3523781404439549 0 0 0.3523781404439549 70.56181816100411 -2.842171e-14)"  >
<linearGradient id="SVGID_940176" gradientUnits="userSpaceOnUse" gradientTransform="matrix(1 0 0 1 573.6843604999999 220.9268180331801)"  x1="0" y1="0" x2="0" y2="603">
<stop offset="0%" style="stop-color:rgb(248,77,158);stop-opacity: 1"/>
<stop offset="100%" style="stop-color:rgb(255,116,117);stop-opacity: 1"/>
</linearGradient>
<path style="stroke: none; stroke-width: 1; stroke-dasharray: none; stroke-linecap: butt; stroke-dashoffset: 0; stroke-linejoin: miter; stroke-miterlimit: 4; fill: url(#SVGID_940176); fill-rule: nonzero; opacity: 1;"  paint-order="stroke"  transform=" translate(-660.0720297232151, -522.42871616659)" d="M 739.164538 501.6705541 C 734.4332021 507.0426757 728.1011307 510.6924707 721.8880946 514.2485904 C 719.4464446000001 518.5594199 720.3937143 522.9666768 721.834917 527.7081371 C 723.2735639 532.4494991 724.7248418 537.7608743000001 722.4757027 542.1757 C 720.9763094000001 545.1187533 718.063531 547.0842619 715.0620904000001 548.4570512 C 713.4613549000001 548.3177671 711.7035438000001 549.2194279 712.1645477000001 550.7594171000001 C 712.6280091000001 552.2968506000001 713.8539454 553.4821911 714.5377844000001 554.9360738 C 715.7611651000001 557.5322437 715.0899079000001 560.7033416 713.5449548 563.1220889 C 712.0024591 565.5410328 709.7052045 567.3646033 707.4483984 569.1402058 C 707.0659322 573.8283901 703.6187234 577.4403415 703.2363063 582.1285258 C 702.5499117 590.5324611000001 701.7368147 599.3265297 697.1347369 606.3956177 C 691.5726109 614.9439485 681.2462202 619.4422267 671.0920917 620.4047323 C 660.9379630999999 621.3672378 650.7712037 619.2776808 640.7842259 617.2007055 C 640.7253471 617.1885169000001 640.6664684 617.17623 640.6075896 617.1640414 C 630.6793923 615.1005326 620.6804225 620.3701324 616.7814495 629.7310686999999 C 614.0117887 636.3806332999999 611.1902282 643.0285267999999 608.8680067 649.6918526999999 L 711.574384 823.9306142999999 L 635.5894287 823.9306142999999 L 627.2487954 795.4716299999999 C 627.2487954 795.4716299999999 629.8829072 721.1609348999999 626.195072 720.6340733 C 622.5047794 720.1072115999999 579.2895396 706.4045811 579.8164012999999 704.8240943999999 C 580.0190858 704.2186949 584.0056397999999 697.742228 588.8484423 689.9791766999999 C 600.4994576 671.3095969999999 594.2586041 651.7156502999999 581.3538348 636.8985501 C 597.3182353 635.031828 610.7827950999999 627.2889272 618.4446025 615.5163208 C 625.2908555 604.9974683 626.4129922999999 593.0526489 627.1423419 584.1472121 C 627.3095418 583.7470528 627.5957772 583.1239602 627.8211678 582.6376944000001 C 628.3480295 581.4953089 628.9888152 580.1072839000001 629.5865476 578.4914109000001 C 631.4127721 576.7740974000001 633.2895202 574.6972204000001 634.9334073 572.1213976000001 C 637.9170565 567.4482524000001 639.3531477 562.2154150000001 639.1860461 557.1117373000002 C 639.4215611 556.8837910000002 639.6546188 556.6532890000002 639.8800094 556.4203296000002 L 642.7497345999999 556.4203296000002 C 645.3534731999999 559.6724227000002 649.3527072999999 561.7569666000002 653.8410576999999 561.7569666000002 L 665.6980012999999 561.7569666000002 C 673.5546786999998 561.7569666000002 680.0816692999999 555.4669655000001 680.1114035999999 547.6103372000001 C 680.1263445 543.6677211000001 678.5328827 540.0954810000001 675.9525874999999 537.5152348000001 C 673.3817776999999 534.9469807000002 669.8332757999999 533.3563695000001 665.9099256 533.3563695000001 L 653.8410577999999 533.3563695000001 C 651.6018955999999 533.3563695000001 649.4819653999999 533.8755642000001 647.5975503 534.8000295000002 C 647.3291064 530.5677378000001 646.3159789 526.8190579000002 645.4725086999999 523.9924843000001 C 650.0974892999999 521.0188612000001 654.8768914999999 517.4121195000001 659.0053834999999 512.7213795000001 C 661.4243273999999 509.97825840000013 665.8643165999998 504.34270600000013 668.4325706999999 497.4407197000001 C 672.2166368 487.2688489000001 670.6793015999999 477.3883247000001 664.2180703999999 470.3318185000001 C 650.2190801999999 455.0411326000001 639.8572049999999 435.3888477000001 634.0849240999999 413.2594283000001 C 642.4458061999999 390.10685530000006 645.1635670999999 364.6898583000001 641.9391932999998 339.38939010000007 C 638.4767486999998 312.19683970000006 628.3328919999998 286.59755450000006 612.6115752999998 265.3546094000001 C 602.0344337999998 251.06442000000007 588.9446731999998 238.68646330000007 573.6843604999998 228.5500279000001 C 584.6692299999997 221.59235740000008 598.3339185999998 219.02154760000008 611.7984782999998 222.4104674000001 C 643.4259064999999 230.3686345000001 672.4471878999998 249.0457829000001 691.8739837999998 275.2985339000001 C 720.4595721999998 313.9191663000001 727.3007138999998 367.6025876000001 709.3126140999998 412.1602434000001 C 715.1761127999998 437.95965740000014 726.7257858999998 462.1077140000001 744.5899355999998 481.62066550000014 C 749.4250710999997 486.90161840000013 743.8958739999997 496.30098810000015 739.1645380999997 501.67055400000015 Z" stroke-linecap="round" />
</g>
		<g transform="matrix(0.3523781404439549 0 0 0.3523781404439549 -35.242330066994214 0.00004952017843606882)"  >
<linearGradient id="SVGID_940177" gradientUnits="userSpaceOnUse" gradientTransform="matrix(1 0 0 1 173.19516970000006 220.92709909589507)"  x1="0" y1="0" x2="0" y2="603">
<stop offset="0%" style="stop-color:rgb(113,23,234);stop-opacity: 1"/>
<stop offset="100%" style="stop-color:rgb(234,96,96);stop-opacity: 1"/>
</linearGradient>
<path style="stroke: none; stroke-width: 1; stroke-dasharray: none; stroke-linecap: butt; stroke-dashoffset: 0; stroke-linejoin: miter; stroke-miterlimit: 4; fill: url(#SVGID_940177); fill-rule: nonzero; opacity: 1;"  paint-order="stroke"  transform=" translate(-359.81461848114003, -522.4288566979476)" d="M 544.5642433 481.6206656 C 526.7001919 462.1077141 515.1505188000001 437.9596575 509.28702010000006 412.1602435 C 527.2751199 367.6025876 520.4339782000001 313.9191664 491.84838980000006 275.298534 C 472.42036520000005 249.046127 443.40031250000004 230.36824140000002 411.77268770000006 222.41051670000002 C 387.25799050000006 216.24254890000003 362.08412640000006 229.82034460000003 353.6290776000001 253.64314270000003 L 313.3520746000001 367.1264463 C 311.38912160000007 366.9516776 309.4033642000001 366.8655711 307.3973580000001 366.8655711 C 270.0481726000001 366.8655711 239.7707291000001 397.1456194 239.7707291000001 434.49475570000004 C 239.7707291000001 462.43444700000003 256.7153282000001 486.41781010000005 280.8887449000001 496.72896510000004 C 284.59171750000013 546.7575291 313.3673103000001 592.0091483 356.9091848000001 617.9782197000001 C 360.3614067000001 620.0375018000001 363.8921663000001 621.9776503 367.1899666000001 624.2749049 C 388.3695114000001 639.0184804 404.2199879000001 665.3068142000001 388.8229467000001 689.9791767 C 383.9801442000001 697.7422280000001 379.9934919000001 704.2186949000001 379.7908074000001 704.8240944 C 379.26394570000014 706.4045812 422.4791856000001 720.1072116 426.1695764000001 720.6340733000001 C 429.8573133000001 721.1609350000001 427.2232015000001 795.47163 427.2232015000001 795.47163 L 354.9342399000001 739.6451301 C 334.74452670000005 724.053268 306.63075470000007 723.8550068 286.22312130000006 739.1605353 L 173.19516970000006 823.9306143 L 511.54879020000004 823.9306143 L 408.84241290000006 649.6918527 C 411.16463440000007 643.0285268 413.98619500000007 636.3806333 416.75585570000004 629.7310687 C 420.6548288 620.3701324 430.65379850000005 615.1005326000001 440.5819958 617.1640414000001 C 440.6409729 617.17623 440.6997533 617.1885169000001 440.7586321 617.2007055000001 C 450.7456099 619.2776808000001 460.9123693 621.3672378000001 471.066547 620.4047323000001 C 481.2206264 619.4422268000001 491.5470171 614.9439486000001 497.10914310000004 606.3956177000001 C 501.71131920000005 599.3265297000002 502.5243179 590.5324611000001 503.21071250000006 582.1285258000001 C 503.59317870000007 577.4403415000002 507.04038750000007 573.8283901000001 507.4228537000001 569.1402058000001 C 509.6795124000001 567.3646033000001 511.9768652000001 565.5410328000002 513.5193118000001 563.1220889000001 C 515.0644123000001 560.7033416000002 515.7355712000001 557.5322437000001 514.5121905000001 554.9360738000001 C 513.8283516000001 553.4821911000001 512.6024152000001 552.2968506000002 512.1389538000001 550.7594171000002 C 511.6779498000001 549.2194279000001 513.4357609000001 548.3177671000002 515.0364965000001 548.4570512000001 C 518.0379371000001 547.0842620000001 520.9507155000001 545.1187533000001 522.4501088000001 542.1757000000001 C 524.6992971000001 537.7608743000001 523.2479700000001 532.4494991000001 521.8093231 527.7081371000002 C 520.3681205 522.9666768000002 519.4208507000001 518.5594199000002 521.8625007 514.2485904000001 C 528.0755368 510.69247060000015 534.4076082 507.0426756000001 539.1389441 501.6705541000001 C 543.87028 496.3009882000001 549.3994771 486.9016185000001 544.5642433 481.6206656000001 Z M 465.8843315 561.7569666 L 453.81536539999996 561.7569666 C 449.32721159999994 561.7569666 445.3278792 559.6724226 442.72414059999994 556.4203296000001 L 403.0472290999999 556.4203296000001 L 325.59826669999995 471.79833210000004 C 320.10209669999995 474.4856707 313.9270026 475.99528670000007 307.39735799999994 475.99528670000007 C 297.67381109999997 475.99528670000007 288.72787659999995 472.64942010000004 281.6535789999999 467.0467474000001 C 272.05417879999993 459.44573550000007 265.8968759999999 447.6882666000001 265.8968759999999 434.49475550000005 C 265.8968759999999 412.67182020000007 282.7376754999999 394.78496430000007 304.1274734999999 393.11842020000006 C 305.20645869999987 393.03482020000007 306.2981239999999 392.99176700000004 307.3973579999999 392.99176700000004 C 330.3194781999999 392.99176700000004 348.9003956999999 411.57258620000005 348.9003956999999 434.49475550000005 C 348.9003956999999 444.46148450000004 345.3847734999999 453.6049429000001 339.52894179999987 460.76023570000007 L 410.8559876999999 538.6904509000001 L 442.7241405999999 538.6904509000001 C 445.32787919999987 535.4408152000001 449.3272115999999 533.3563695000001 453.8153653999999 533.3563695000001 L 465.8843314999999 533.3563695000001 C 469.80768169999993 533.3563695000001 473.35623279999993 534.9469807000002 475.92704259999994 537.5152348000001 C 478.4952966999999 540.0834889000001 480.08600619999993 543.6344973000001 480.08600619999993 547.5552919000002 C 480.08600619999993 555.3996333000001 473.7284763999999 561.7569665000002 465.88433159999994 561.7569665000002 Z" stroke-linecap="round" />
</g>
</g>
</g>
<g transform="matrix(1.9211538461538462 0 0 1.9211538461538462 643.2592375 699.9339688221557)" id="text-logo"  >
<g style=""  paint-order="stroke"   >
		<g transform="matrix(1 0 0 1 0 0)" id="text-logo-path-0"  >
<linearGradient id="SVGID_940180" gradientUnits="userSpaceOnUse" gradientTransform="matrix(1 0 0 1 3.5999999999999943 -40.08)"  x1="-3.552503982543925" y1="-10.912120000000016" x2="-3.552503982543925" y2="55.087879999999984">
<stop offset="0%" style="stop-color:rgb(98,39,116);stop-opacity: 1"/>
<stop offset="100%" style="stop-color:rgb(197,51,100);stop-opacity: 1"/>
</linearGradient>
<path style="stroke: none; stroke-width: 0; stroke-dasharray: none; stroke-linecap: butt; stroke-dashoffset: 0; stroke-linejoin: miter; stroke-miterlimit: 4; fill: url(#SVGID_940180); fill-rule: nonzero; opacity: 1;"  paint-order="stroke"  transform=" translate(-80.795, 19.634999999999998)" d="M 26.16 -39.67 L 26.16 -19.49 L 13.28 -39.67 L 3.6 -39.67 L 3.6 0 L 13.28 0 L 13.28 -22.68 L 27.78 0 L 35.84 0 L 35.84 -39.67 Z M 63.45 0.81 C 74.82 0.81 83.87 -8.41 83.87 -19.66 C 83.87 -31.09 74.76 -40.08 63.45 -40.08 C 52.08 -40.08 42.98 -30.91 42.98 -19.66 C 42.98 -8.47 52.14 0.81 63.45 0.81 Z M 52.61 -19.66 C 52.61 -25.58 57.59 -30.45 63.45 -30.45 C 69.43 -30.45 74.18 -25.58 74.18 -19.66 C 74.18 -13.75 69.43 -8.87 63.45 -8.87 C 57.54 -8.87 52.61 -13.8 52.61 -19.66 Z M 112.87 -39.67 L 104.34 -14.15 L 95.93 -39.67 L 85.78 -39.67 L 98.95 0 L 109.85 0 L 123.02 -39.67 Z M 147.67 0 L 157.99 0 L 143.43 -39.67 L 133.11 -39.67 L 118.61 0 L 128.93 0 L 131.49 -6.9 L 145.12 -6.9 Z M 134.79 -16.07 L 138.33 -25.64 L 141.75 -16.07 Z" stroke-linecap="round" />
</g>
</g>
</g>
<g transform="matrix(4.3948589546186 0 0 4.3948589546186 639.1275617140196 388.76884247584087)" id="shape-30d843cb-3c13-4bc3-b8c2-9c3424a77a65"  >
<g style=""  paint-order="stroke"   >
		<g transform="matrix(1 0 0 1 0 0)" id="basic_shape-119_00000039824609629526743860000002299132731822477699_"  >
<linearGradient id="SVGID_13_940179" gradientUnits="userSpaceOnUse" gradientTransform="matrix(1 0 0 1 0 0)"  x1="0" y1="0" x2="0" y2="100">
<stop offset="0%" style="stop-color:rgb(113,23,234);stop-opacity: 1"/>
<stop offset="100%" style="stop-color:rgb(234,96,96);stop-opacity: 1"/>
</linearGradient>
<path style="stroke: none; stroke-width: 1; stroke-dasharray: none; stroke-linecap: butt; stroke-dashoffset: 0; stroke-linejoin: miter; stroke-miterlimit: 4; fill: url(#SVGID_13_940179); fill-rule: nonzero; opacity: 1;"  paint-order="stroke"  transform=" translate(-50, -50)" d="M 96 70.24524 L 100 70.24524 L 100 100 L 0 100 L 0 70.24524 L 4 70.24524 L 4 96 L 96 96 L 96 70.24524 z M 0 29.7547 L 4 29.7547 L 4 4 L 96 4 L 96 29.7547 L 100 29.7547 L 100 0 L 0 0 L 0 29.7547 z" stroke-linecap="round" />
</g>
</g>
</g>
</svg>