<?xml version="1.0" encoding="UTF-8" standalone="no" ?>
<!DOCTYPE svg PUBLIC "-//W3C//DTD SVG 1.1//EN" "http://www.w3.org/Graphics/SVG/1.1/DTD/svg11.dtd">
<svg xmlns="http://www.w3.org/2000/svg" xmlns:xlink="http://www.w3.org/1999/xlink" version="1.1" width="1280" height="1024" viewBox="0 0 1280 1024" xml:space="preserve">
<desc>Created with Fabric.js 5.3.0</desc>
<defs>
</defs>
<g transform="matrix(1 0 0 1 640 512)" id="background-logo"  >
<rect style="stroke: none; stroke-width: 0; stroke-dasharray: none; stroke-linecap: butt; stroke-dashoffset: 0; stroke-linejoin: miter; stroke-miterlimit: 4; fill: rgba(0, 0, 0, 1); fill-rule: nonzero; opacity: 1;"  paint-order="stroke"  x="-640" y="-512" rx="0" ry="0" width="1280" height="1024" />
</g>
<g transform="matrix(1.9211538461538462 0 0 1.9211538461538462 640 407.8638533541173)" id="logo-logo"  >
<g style=""  paint-order="stroke"   >
		<g transform="matrix(0.24690266644981837 0 0 0.24690266644981837 0 -6.962655193884842)"  >
<linearGradient id="SVGID_491199" gradientUnits="userSpaceOnUse" gradientTransform="matrix(1 0 0 1 122.69999999999999 94.5)"  x1="0" y1="0" x2="0" y2="755">
<stop offset="0%" style="stop-color:rgb(113,23,234);stop-opacity: 1"/>
<stop offset="100%" style="stop-color:rgb(234,96,96);stop-opacity: 1"/>
</linearGradient>
<path style="stroke: none; stroke-width: 1; stroke-dasharray: none; stroke-linecap: butt; stroke-dashoffset: 0; stroke-linejoin: miter; stroke-miterlimit: 4; fill: url(#SVGID_491199); fill-rule: nonzero; opacity: 1;"  paint-order="stroke"  transform=" translate(-500.29999999999995, -472.1)" d="M 500.3 849.7 C 399.4 849.7 304.6 810.4000000000001 233.3 739.1 C 162 667.8000000000001 122.70000000000002 573 122.70000000000002 472.1 C 122.70000000000002 371.20000000000005 162 276.40000000000003 233.3 205.10000000000002 C 304.6 133.8 399.4 94.50000000000003 500.3 94.50000000000003 C 601.2 94.50000000000003 696 133.8 767.3 205.10000000000002 C 838.5999999999999 276.40000000000003 877.9 371.20000000000005 877.9 472.1 C 877.9 573 838.6 667.8 767.3 739.1 C 696 810.4 601.1999999999999 849.7 500.29999999999995 849.7 Z M 500.3 118.8 C 305.5 118.8 147.10000000000002 277.3 147.10000000000002 472 C 147.10000000000002 666.7 305.6 825.2 500.3 825.2 C 695 825.2 853.5 666.7 853.5 472.00000000000006 C 853.5 277.30000000000007 695 118.8 500.3 118.8 Z" stroke-linecap="round" />
</g>
		<g transform="matrix(0.24690266644981837 0 0 0.24690266644981837 0 -6.962655193884842)"  >
<linearGradient id="SVGID_491200" gradientUnits="userSpaceOnUse" gradientTransform="matrix(1 0 0 1 128.8 100.60000000000008)"  x1="0" y1="0" x2="0" y2="743">
<stop offset="0%" style="stop-color:rgb(248,77,158);stop-opacity: 1"/>
<stop offset="100%" style="stop-color:rgb(255,116,117);stop-opacity: 1"/>
</linearGradient>
<path style="stroke: none; stroke-width: 1; stroke-dasharray: none; stroke-linecap: butt; stroke-dashoffset: 0; stroke-linejoin: miter; stroke-miterlimit: 4; fill: url(#SVGID_491200); fill-rule: nonzero; opacity: 1;"  paint-order="stroke"  transform=" translate(-500.3, -472.1)" d="M 500.3 843.6 C 401.1 843.6 307.8 805 237.60000000000002 734.8000000000001 C 167.40000000000003 664.6 128.8 571.3000000000001 128.8 472.1000000000001 C 128.8 372.9000000000001 167.4 279.6000000000001 237.60000000000002 209.4000000000001 C 307.8 139.2000000000001 401.1 100.6000000000001 500.3 100.6000000000001 C 599.5 100.6000000000001 692.8 139.2000000000001 763 209.4000000000001 C 833.2 279.6000000000001 871.8 372.9000000000001 871.8 472.1000000000001 C 871.8 571.3000000000001 833.1999999999999 664.6000000000001 763 734.8000000000001 C 692.8 805.0000000000001 599.5 843.6 500.3 843.6 Z M 500.3 112.8 C 302.20000000000005 112.8 141 274 141 472.1 C 141 670.2 302.2 831.4000000000001 500.3 831.4000000000001 C 698.4000000000001 831.4000000000001 859.6 670.2 859.6 472.1000000000001 C 859.6 274.0000000000001 698.4 112.8 500.3 112.8 Z" stroke-linecap="round" />
</g>
		<g transform="matrix(0.24690266644981837 0 0 0.24690266644981837 -1.8764602650185793 13.320398854967692)"  >
<linearGradient id="SVGID_491201" gradientUnits="userSpaceOnUse" gradientTransform="matrix(1 0 0 1 241.0000000000001 410.5)"  x1="0" y1="0" x2="0" y2="288">
<stop offset="0%" style="stop-color:rgb(98,39,116);stop-opacity: 1"/>
<stop offset="100%" style="stop-color:rgb(197,51,100);stop-opacity: 1"/>
</linearGradient>
<path style="stroke: none; stroke-width: 1; stroke-dasharray: none; stroke-linecap: butt; stroke-dashoffset: 0; stroke-linejoin: miter; stroke-miterlimit: 4; fill: url(#SVGID_491201); fill-rule: nonzero; opacity: 1;"  paint-order="stroke"  transform=" translate(-492.7000000000001, -554.25)" d="M 304.3 410.5 C 445.3 474.2 592.3 520.2 744.4000000000001 548.3 C 735.4000000000001 598.1999999999999 726.5000000000001 648.0999999999999 717.5000000000001 698 C 552.8000000000002 667.6 393.60000000000014 617.8 241.0000000000001 548.8 C 262.10000000000014 502.69999999999993 283.2000000000001 456.59999999999997 304.3000000000001 410.49999999999994 Z" stroke-linecap="round" />
</g>
		<g transform="matrix(0.24690266644981837 0 0 0.24690266644981837 -0.012345133322469337 0)"  >
<linearGradient id="SVGID_491202" gradientUnits="userSpaceOnUse" gradientTransform="matrix(1 0 0 1 168.3 47.80000000000001)"  x1="0" y1="0" x2="0" y2="905">
<stop offset="0%" style="stop-color:rgb(248,77,158);stop-opacity: 1"/>
<stop offset="100%" style="stop-color:rgb(255,116,117);stop-opacity: 1"/>
</linearGradient>
<path style="stroke: none; stroke-width: 1; stroke-dasharray: none; stroke-linecap: butt; stroke-dashoffset: 0; stroke-linejoin: miter; stroke-miterlimit: 4; fill: url(#SVGID_491202); fill-rule: nonzero; opacity: 1;"  paint-order="stroke"  transform=" translate(-500.25000000000006, -500.29999999999995)" d="M 492.7 952.8 C 383.29999999999995 826 244.1 628 168.3 478.69999999999993 C 213.60000000000002 455.99999999999994 258.9 433.19999999999993 304.3 410.49999999999994 C 374.4 548.4 506.4 735.8 607.5 852.8999999999999 C 569.3 886.1999999999998 531 919.4999999999999 492.8 952.7999999999998 Z M 832.2 598.1 C 733.8000000000001 484 614 284.6 543.1 146.90000000000003 L 613.8000000000001 106.60000000000004 L 398.9000000000001 47.80000000000004 L 340.1000000000001 262.70000000000005 L 410.9000000000001 222.30000000000004 C 487.80000000000007 370.6 612.4000000000001 576.2 717.5000000000001 698 C 755.7000000000002 664.7 794.0000000000001 631.4 832.2000000000002 598.1 Z" stroke-linecap="round" />
</g>
		<g transform="matrix(0.24690266644981837 0 0 0.24690266644981837 -0.09876106657992523 -0.33331859970724054)"  >
<linearGradient id="SVGID_491203" gradientUnits="userSpaceOnUse" gradientTransform="matrix(1 0 0 1 188 65.70000000000005)"  x1="0" y1="0" x2="0" y2="867">
<stop offset="0%" style="stop-color:rgb(113,23,234);stop-opacity: 1"/>
<stop offset="100%" style="stop-color:rgb(234,96,96);stop-opacity: 1"/>
</linearGradient>
<path style="stroke: none; stroke-width: 1; stroke-dasharray: none; stroke-linecap: butt; stroke-dashoffset: 0; stroke-linejoin: miter; stroke-miterlimit: 4; fill: url(#SVGID_491203); fill-rule: nonzero; opacity: 1;"  paint-order="stroke"  transform=" translate(-499.9, -498.95000000000005)" d="M 494.2 932.2 C 397.2 817.8000000000001 265.5 633.7 188 485.20000000000005 L 297.9 430.1 C 370.9 569.5 495.09999999999997 743 586.9 851.5 L 494.2 932.2 Z M 811.8 596.6 C 715.5999999999999 481.5 602 293.1 530.1999999999999 153.60000000000002 L 523.8 141.20000000000002 L 576 111.40000000000002 L 409.2 65.70000000000002 L 363.5 232.50000000000003 L 416.9 202.10000000000002 L 423.9 215.60000000000002 C 498.79999999999995 360.20000000000005 617.8 556.4000000000001 719.0999999999999 677.3 L 811.8 596.5999999999999 Z" stroke-linecap="round" />
</g>
</g>
</g>
<g transform="matrix(1.9211538461538462 0 0 1.9211538461538462 639.6378625000001 682.6465415730904)" id="text-logo"  >
<g style=""  paint-order="stroke"   >
		<g transform="matrix(1 0 0 1 0 0)" id="text-logo-path-0"  >
<linearGradient id="SVGID_491204" gradientUnits="userSpaceOnUse" gradientTransform="matrix(1 0 0 1 1.5699999999999932 -40.43)"  x1="-1.493503318786594" y1="-10.564120000000003" x2="-1.493503318786594" y2="55.43588">
<stop offset="0%" style="stop-color:rgb(98,39,116);stop-opacity: 1"/>
<stop offset="100%" style="stop-color:rgb(197,51,100);stop-opacity: 1"/>
</linearGradient>
<path style="stroke: none; stroke-width: 0; stroke-dasharray: none; stroke-linecap: butt; stroke-dashoffset: 0; stroke-linejoin: miter; stroke-miterlimit: 4; fill: url(#SVGID_491204); fill-rule: nonzero; opacity: 1;"  paint-order="stroke"  transform=" translate(-120.09, 19.81)" d="M 17.28 0.81 C 24.65 0.81 31.78 -3.31 31.78 -11.25 C 31.78 -19.08 25.64 -22.33 18.97 -24.36 C 17.17 -24.94 15.83 -25.46 14.96 -25.87 C 13.75 -26.45 12.88 -27.09 12.88 -28.54 C 12.88 -30.22 15.02 -30.86 16.36 -30.86 C 19.49 -30.86 21.05 -29.46 22.39 -26.74 L 30.62 -31.55 C 27.78 -37.41 22.85 -40.43 16.36 -40.43 C 9.28 -40.43 3.25 -35.84 3.25 -28.54 C 3.25 -21.05 8.58 -18.1 15.02 -16.18 C 17.05 -15.6 18.5 -15.08 19.49 -14.67 C 20.82 -14.15 22.16 -13.46 22.16 -11.83 C 22.16 -9.69 19.26 -8.64 17.52 -8.64 C 13.75 -8.64 11.14 -10.09 9.69 -13.69 L 1.57 -8.93 C 4.18 -2.26 10.32 0.81 17.28 0.81 Z M 60.26 -39.67 L 52.2 -24.77 L 44.08 -39.67 L 33.18 -39.67 L 47.33 -13.46 L 47.33 0 L 57.01 0 L 57.01 -13.34 L 71.17 -39.67 Z M 99.64 -39.67 L 99.64 -19.49 L 86.77 -39.67 L 77.08 -39.67 L 77.08 0 L 86.77 0 L 86.77 -22.68 L 101.27 0 L 109.33 0 L 109.33 -39.67 Z M 116.46 -19.66 C 116.46 -8.35 125.74 0.81 136.94 0.81 C 144.42 0.81 151.5 -3.48 154.98 -10.09 L 146.45 -14.73 C 144.71 -11.19 140.88 -8.87 136.94 -8.87 C 131.02 -8.87 126.09 -13.8 126.09 -19.66 C 126.09 -25.58 131.08 -30.45 136.94 -30.45 C 140.88 -30.45 144.48 -28.36 146.39 -24.88 L 154.86 -29.41 C 151.32 -36.02 144.42 -40.08 136.94 -40.08 C 125.69 -40.08 116.46 -31.03 116.46 -19.66 Z M 176.15 -12.76 L 183.28 0 L 194.3 0 L 186.01 -14.96 C 189.83 -17.46 192.04 -21.69 192.04 -26.22 C 192.04 -33.7 186.06 -39.67 178.64 -39.67 L 161.82 -39.67 L 161.82 0 L 171.51 0 L 171.51 -12.76 Z M 171.51 -21.92 L 171.51 -30.51 L 178.64 -30.51 C 181.08 -30.51 182.93 -28.65 182.93 -26.22 C 182.93 -23.9 180.96 -21.92 178.64 -21.92 Z M 218.2 0.81 C 229.56 0.81 238.61 -8.41 238.61 -19.66 C 238.61 -31.09 229.51 -40.08 218.2 -40.08 C 206.83 -40.08 197.72 -30.91 197.72 -19.66 C 197.72 -8.47 206.89 0.81 218.2 0.81 Z M 207.35 -19.66 C 207.35 -25.58 212.34 -30.45 218.2 -30.45 C 224.17 -30.45 228.93 -25.58 228.93 -19.66 C 228.93 -13.75 224.17 -8.87 218.2 -8.87 C 212.28 -8.87 207.35 -13.8 207.35 -19.66 Z" stroke-linecap="round" />
</g>
</g>
</g>
</svg>