<?xml version="1.0" encoding="UTF-8" standalone="no" ?>
<!DOCTYPE svg PUBLIC "-//W3C//DTD SVG 1.1//EN" "http://www.w3.org/Graphics/SVG/1.1/DTD/svg11.dtd">
<svg xmlns="http://www.w3.org/2000/svg" xmlns:xlink="http://www.w3.org/1999/xlink" version="1.1" width="1280" height="1024" viewBox="0 0 1280 1024" xml:space="preserve">
<desc>Created with Fabric.js 5.3.0</desc>
<defs>
</defs>
<g transform="matrix(1 0 0 1 640 512)" id="background-logo"  >
<rect style="stroke: none; stroke-width: 0; stroke-dasharray: none; stroke-linecap: butt; stroke-dashoffset: 0; stroke-linejoin: miter; stroke-miterlimit: 4; fill: rgba(0, 0, 0, 1); fill-rule: nonzero; opacity: 1;"  paint-order="stroke"  x="-640" y="-512" rx="0" ry="0" width="1280" height="1024" />
</g>
<g transform="matrix(1.9211538461538462 0 0 1.9211538461538462 639.1275617140196 399.6498507874233)" id="logo-logo"  >
<g style=""  paint-order="stroke"   >
		<g transform="matrix(1.0842879227256212 0 0 -1.0842879227256215 24.915896079502545 14.581339405081536)"  >
<linearGradient id="SVGID_940821" gradientUnits="userSpaceOnUse" gradientTransform="matrix(1 0 0 1 -29.167939492138345 -27.540319369300818)"  x1="0" y1="0" x2="0" y2="29">
<stop offset="0%" style="stop-color:rgb(248,77,158);stop-opacity: 1"/>
<stop offset="100%" style="stop-color:rgb(255,116,117);stop-opacity: 1"/>
</linearGradient>
<path style="stroke: none; stroke-width: 1; stroke-dasharray: none; stroke-linecap: butt; stroke-dashoffset: 0; stroke-linejoin: miter; stroke-miterlimit: 4; fill: url(#SVGID_940821); fill-rule: nonzero; opacity: 1;"  paint-order="stroke"  transform=" translate(7.858097176113699, 13.053083718822853)" d="M 0 0 C -1.801 0.854 -4.048 0.103 -4.942 -1.74 C -5.043 -1.93 -6.324 -4.742 -6.448 -4.974 C -6.448 -4.974 -7.267 -6.748 -7.267 -6.748 C -9.23 -11.417 -2.5040000000000004 -14.395 -0.3880000000000008 -9.716000000000001 C -0.3860000000000008 -9.716000000000001 0.9899999999999991 -6.743000000000001 0.9949999999999992 -6.748000000000001 L 1.8139999999999992 -4.974000000000001 C 2.682 -3.144 1.89 -0.874 0 0 M 11.287 -11.269 C 9.486 -10.415000000000001 7.238 -11.166 6.344000000000001 -13.009 C 6.295000000000001 -13.071 4.924000000000001 -16.108 4.839000000000001 -16.243000000000002 L 2.0550000000000015 -22.228 C 1.8150000000000015 -22.739 1.7040000000000015 -23.276000000000003 1.7040000000000015 -23.803 C 1.7130000000000014 -27.697000000000003 7.011000000000002 -29.028 8.811000000000002 -25.463 C 8.850000000000001 -25.405 10.240000000000002 -22.365000000000002 10.314000000000002 -22.228 C 10.320000000000002 -22.233 13.098000000000003 -16.243000000000002 13.101000000000003 -16.243000000000002 C 13.968000000000004 -14.413000000000002 13.177000000000003 -12.143000000000002 11.287000000000003 -11.269000000000002 M -16.017 1.082 C -17.910999999999998 1.991 -20.296 1.076 -21.082 -0.9239999999999997 C -21.918 -2.7209999999999996 -27.831 -15.436 -28.809 -17.549 C -30.735 -22.019 -24.393 -25.139 -22.053 -20.783 C -22.031000000000002 -20.73 -20.611 -17.683 -20.55 -17.549 C -20.544 -17.554 -14.206 -3.8919999999999995 -14.203 -3.8919999999999995 C -13.334999999999999 -2.0619999999999994 -14.126999999999999 0.20800000000000018 -16.017 1.0820000000000007 M -8.922999999999998 -18.223 C -10.797999999999998 -17.351 -13.025999999999998 -18.165 -13.897999999999998 -20.04 C -15.824999999999998 -24.618 -9.362999999999998 -27.621 -7.104999999999998 -23.198999999999998 C -6.232999999999998 -21.322999999999997 -7.046999999999998 -19.095999999999997 -8.922999999999998 -18.223" stroke-linecap="round" />
</g>
		<g transform="matrix(1.0842879227256212 0 0 -1.0842879227256215 29.90935090248604 46.455444793726485)"  >
<linearGradient id="SVGID_940822" gradientUnits="userSpaceOnUse" gradientTransform="matrix(1 0 0 1 -12.336802959742927 -22.21340009743075)"  x1="0" y1="0" x2="0" y2="23">
<stop offset="0%" style="stop-color:rgb(98,39,116);stop-opacity: 1"/>
<stop offset="100%" style="stop-color:rgb(197,51,100);stop-opacity: 1"/>
</linearGradient>
<path style="stroke: none; stroke-width: 1; stroke-dasharray: none; stroke-linecap: butt; stroke-dashoffset: 0; stroke-linejoin: miter; stroke-miterlimit: 4; fill: url(#SVGID_940822); fill-rule: nonzero; opacity: 1;"  paint-order="stroke"  transform=" translate(5.085812252870027, 10.931131977061996)" d="M 0 0 C -1.801 0.854 -4.049 0.103 -4.942 -1.74 C -5.043 -1.93 -11.039000000000001 -14.884 -11.163 -15.117 C -11.163 -15.116000000000001 -11.982 -16.89 -11.982 -16.89 C -13.945 -21.559 -7.218999999999999 -24.537 -5.103 -19.859 C -5.101 -19.858 0.9900000000000002 -6.743000000000002 0.9950000000000001 -6.748000000000001 L 1.814 -4.974000000000001 C 2.682 -3.144 1.89 -0.874 0 0" stroke-linecap="round" />
</g>
		<g transform="matrix(1.0842879227256212 0 0 -1.0842879227256215 47.229811379081525 -31.311425853806668)"  >
<linearGradient id="SVGID_940823" gradientUnits="userSpaceOnUse" gradientTransform="matrix(1 0 0 1 -46.071 -73.698847122733)"  x1="0" y1="0" x2="0" y2="75">
<stop offset="0%" style="stop-color:rgb(113,23,234);stop-opacity: 1"/>
<stop offset="100%" style="stop-color:rgb(234,96,96);stop-opacity: 1"/>
</linearGradient>
<path style="stroke: none; stroke-width: 1; stroke-dasharray: none; stroke-linecap: butt; stroke-dashoffset: 0; stroke-linejoin: miter; stroke-miterlimit: 4; fill: url(#SVGID_940823); fill-rule: nonzero; opacity: 1;"  paint-order="stroke"  transform=" translate(17.617670567469492, 35.974926472089365)" d="M 0 0 C -9.146 4.323 -20.522 0.385 -24.876 -9.087 C -24.876 -9.087 -45.72 -53.913 -45.72 -53.913 C -45.96 -54.424 -46.071 -54.961 -46.071 -55.488 C -46.039 -59.547 -40.448 -60.717 -38.840999999999994 -56.882 L -32.37199999999999 -42.974999999999994 C -30.669999999999995 -39.416 -25.37099999999999 -40.565 -25.242999999999995 -44.458999999999996 L -25.498999999999995 -45.943999999999996 L -28.940999999999995 -53.364999999999995 C -30.858999999999995 -57.897999999999996 -24.460999999999995 -60.977 -22.151999999999994 -56.52499999999999 C -22.152999999999995 -56.52499999999999 -15.581999999999994 -42.39499999999999 -15.581999999999994 -42.39499999999999 C -13.820999999999994 -38.83599999999999 -8.474999999999994 -40.12399999999999 -8.463999999999993 -44.03899999999999 C -8.463999999999993 -44.490999999999985 -8.548999999999994 -44.953999999999986 -8.718999999999994 -45.39599999999999 L -19.390999999999995 -68.34599999999999 C -21.354999999999993 -72.87899999999999 -14.911999999999995 -75.996 -12.607999999999993 -71.53299999999999 L 9.06 -24.93 C 13.461 -15.556 9.398 -4.365 0 0" stroke-linecap="round" />
</g>
		<g transform="matrix(1.0842879227256212 0 0 -1.0842879227256215 -33.61454300687126 0.013984158141511216)"  >
<linearGradient id="SVGID_940824" gradientUnits="userSpaceOnUse" gradientTransform="matrix(1 0 0 1 67.45346580202443 44.319134811788985)"  x1="0" y1="0" x2="0" y2="133">
<stop offset="0%" style="stop-color:rgb(113,23,234);stop-opacity: 1"/>
<stop offset="100%" style="stop-color:rgb(234,96,96);stop-opacity: 1"/>
</linearGradient>
<path style="stroke: none; stroke-width: 1; stroke-dasharray: none; stroke-linecap: butt; stroke-dashoffset: 0; stroke-linejoin: miter; stroke-miterlimit: 4; fill: url(#SVGID_940824); fill-rule: nonzero; opacity: 1;"  paint-order="stroke"  transform=" translate(-108.46367066113444, -110.90756740589448)" d="M 76.265 174.657 C 70.43 171.2 66.698 163.602 67.583 156.813 L 67.583 156.813 C 67.812 154.635 68.42699999999999 152.516 69.38 150.557 L 69.38 150.557 L 113.643 55.365999999999985 C 120.011 40.917999999999985 140.89 40.448999999999984 147.723 55.09999999999999 L 147.723 55.09999999999999 C 150.101 60.21199999999999 149.973 65.85099999999998 147.846 70.62799999999999 L 147.846 70.62799999999999 C 147.591 71.17199999999998 103.256 166.534 103.035 167.00599999999997 L 103.035 167.00599999999997 C 99.93599999999999 173.62899999999996 93.024 177.49599999999998 86.035 177.49599999999998 L 86.035 177.49599999999998 C 82.655 177.49499999999998 79.25699999999999 176.59099999999998 76.265 174.65699999999998" stroke-linecap="round" />
</g>
</g>
</g>
<g transform="matrix(1.9211538461538462 0 0 1.9211538461538462 639.4140480769231 692.0606379385896)" id="text-logo"  >
<g style=""  paint-order="stroke"   >
		<g transform="matrix(1 0 0 1 0 0)" id="text-logo-path-0"  >
<linearGradient id="SVGID_940827" gradientUnits="userSpaceOnUse" gradientTransform="matrix(1 0 0 1 1.7099999999999937 -41.72)"  x1="-1.6774934844970915" y1="-11.903539999999964" x2="-1.6774934844970915" y2="57.096460000000036">
<stop offset="0%" style="stop-color:rgb(98,39,116);stop-opacity: 1"/>
<stop offset="100%" style="stop-color:rgb(197,51,100);stop-opacity: 1"/>
</linearGradient>
<path style="stroke: none; stroke-width: 0; stroke-dasharray: none; stroke-linecap: butt; stroke-dashoffset: 0; stroke-linejoin: miter; stroke-miterlimit: 4; fill: url(#SVGID_940827); fill-rule: nonzero; opacity: 1;"  paint-order="stroke"  transform=" translate(-116.20499999999998, 20.31)" d="M 36.84 -37.33 C 36.84 -39.89 34.16 -41.36 31.72 -41.36 C 29.77 -41.36 28.18 -39.65 27.57 -37.82 L 19.28 -15.62 L 10.98 -37.82 C 10.25 -39.53 8.66 -41.36 6.83 -41.36 C 4.39 -41.36 1.71 -39.89 1.71 -37.33 C 1.71 -36.36 1.83 -35.38 2.2 -34.4 L 14.88 -2.44 C 15.62 -0.49 17.32 0.85 19.4 0.85 C 21.96 0.85 23.06 -0.85 23.91 -3.05 L 36.36 -34.4 C 36.6 -35.26 36.84 -36.36 36.84 -37.33 Z M 69.17 -4.15 C 69.17 -6.95 67.1 -8.42 64.54 -8.42 L 54.9 -8.42 L 54.9 -16.23 L 63.56 -16.23 C 66.12 -16.23 68.2 -17.81 68.2 -20.37 C 68.2 -23.18 66.12 -24.64 63.56 -24.64 L 54.9 -24.64 L 54.9 -32.33 L 64.54 -32.33 C 67.1 -32.33 69.17 -33.92 69.17 -36.48 C 69.17 -39.28 67.1 -40.75 64.54 -40.75 L 51.24 -40.75 C 47.58 -40.75 45.51 -38.55 45.51 -35.01 L 45.51 -5.73 C 45.51 -2.07 47.58 0 51.24 0 L 64.54 0 C 67.1 0 69.17 -1.59 69.17 -4.15 Z M 109.92 -5.61 C 109.92 -7.81 108.58 -10 106.26 -10 L 105.9 -10 C 105.29 -10 104.68 -9.88 104.07 -9.64 L 101.38 -8.3 C 100.16 -7.81 98.82 -7.69 97.6 -7.69 C 95.16 -7.69 92.6 -8.54 90.77 -10.25 C 87.96 -12.93 87.23 -16.84 87.23 -20.5 C 87.23 -27.21 90.4 -32.94 97.72 -32.94 C 99.31 -32.94 100.89 -32.57 102.48 -31.96 C 103.58 -31.48 104.68 -30.99 105.9 -30.99 C 108.46 -30.99 109.56 -33.06 109.56 -35.38 C 109.56 -40.38 101.38 -41.72 97.48 -41.72 C 85.64 -41.72 77.35 -33.18 77.35 -21.59 C 77.35 -15.25 78.81 -8.66 83.57 -4.27 C 87.23 -0.73 92.11 1.1 97.11 1.1 C 100.65 1.1 104.07 0.61 107.12 -1.34 C 108.58 -2.2 109.92 -3.78 109.92 -5.61 Z M 145.3 -36.48 C 145.3 -39.28 143.23 -40.75 140.67 -40.75 L 120.41 -40.75 C 117.85 -40.75 115.78 -39.16 115.78 -36.48 C 115.78 -33.79 117.85 -32.33 120.41 -32.33 L 125.9 -32.33 L 125.9 -4.64 C 125.9 -1.83 127.61 0.61 130.66 0.61 C 133.71 0.61 135.3 -1.83 135.3 -4.64 L 135.3 -32.33 L 140.67 -32.33 C 143.23 -32.33 145.3 -33.92 145.3 -36.48 Z M 191.66 -20.62 C 191.66 -32.57 183.73 -41.72 171.53 -41.72 C 166.53 -41.72 161.77 -40.02 158.11 -36.72 C 153.48 -32.57 151.4 -26.72 151.4 -20.62 C 151.4 -14.88 152.99 -9.27 157.01 -5 C 160.8 -0.98 166.04 1.1 171.53 1.1 C 176.53 1.1 181.29 -0.49 184.95 -3.9 C 189.71 -8.17 191.66 -14.4 191.66 -20.62 Z M 181.66 -20.62 C 181.66 -14.15 178.97 -7.32 171.53 -7.32 C 164.33 -7.32 161.41 -14.27 161.41 -20.62 C 161.41 -23.91 162.14 -27.57 164.46 -30.13 C 166.16 -32.09 168.85 -33.31 171.41 -33.31 C 178.61 -33.31 181.66 -26.96 181.66 -20.62 Z M 230.7 -3.9 L 230.7 -4.88 C 230.34 -6.1 229.48 -7.2 228.51 -8.17 L 220.58 -16.84 C 223.02 -17.45 225.21 -18.18 227.04 -19.89 C 229.36 -22.08 230.21 -25.25 230.21 -28.43 C 230.21 -31.84 228.63 -35.26 225.94 -37.45 C 223.14 -39.77 219.48 -40.63 215.94 -40.63 L 206.55 -40.63 C 202.89 -40.63 200.81 -38.55 200.81 -35.01 L 200.81 -4.64 C 200.81 -1.83 202.52 0.61 205.57 0.61 C 208.5 0.61 210.21 -1.83 210.21 -4.64 L 210.21 -16.59 L 222.28 -1.46 C 223.38 0.12 225.09 0.61 226.92 0.61 C 228.99 0.61 230.7 -1.71 230.7 -3.9 Z M 221.06 -27.69 C 221.06 -24.89 218.75 -23.06 215.94 -23.06 L 210.21 -23.06 L 210.21 -32.57 L 215.82 -32.57 C 218.5 -32.57 221.06 -30.5 221.06 -27.69 Z" stroke-linecap="round" />
</g>
</g>
</g>
<g transform="matrix(-2.334179709651337 0 0 -2.334179709651337 639.1275617140196 432.32982118643076)" id="shape-99dc2b5f-8c94-4cb3-a865-1f18e17f565b"  >
<g style=""  paint-order="stroke"   >
		<g transform="matrix(1 0 0 1 0 1.421085e-14)" id="Layer_1"  >
<linearGradient id="SVGID_15_940826" gradientUnits="userSpaceOnUse" gradientTransform="matrix(1 0 0 1 0.009491305569213182 -0.0030461610592880106)"  x1="0" y1="0" x2="0" y2="173">
<stop offset="0%" style="stop-color:rgb(113,23,234);stop-opacity: 1"/>
<stop offset="100%" style="stop-color:rgb(234,96,96);stop-opacity: 1"/>
</linearGradient>
<path style="stroke: none; stroke-width: 1; stroke-dasharray: none; stroke-linecap: butt; stroke-dashoffset: 0; stroke-linejoin: miter; stroke-miterlimit: 4; fill: url(#SVGID_15_940826); fill-rule: nonzero; opacity: 1;"  paint-order="stroke"  transform=" translate(-100.00000000000001, -86.4985125497121)" d="M 193.4 173 L 6.6 173 C 4.246766452809293 173.01094433517173 2.0679575028515442 171.76056164023746 0.8901928302885853 169.72323538208468 C -0.2875718422743736 167.6859091239319 -0.28382951814575286 165.1738081468179 0.8999999999999995 163.14 L 94.3 3.26 L 94.3 3.26 C 95.48697348830677 1.2385353461910995 97.65581028742511 -0.0030461610592875665 100 -0.0030461610592875665 C 102.34418971257489 -0.0030461610592875665 104.51302651169323 1.2385353461910982 105.7 3.2599999999999985 L 199.10000000000002 163.14 C 200.28382951814578 165.1738081468179 200.2875718422744 167.6859091239319 199.10980716971144 169.72323538208468 C 197.93204249714847 171.76056164023746 195.75323354719075 173.01094433517173 193.40000000000003 173 Z M 96.86 4.75 L 3.46 164.62 C 2.80033933995122 165.73292775443807 2.8003393399512206 167.11707224556196 3.4600000000000004 168.23000000000002 C 4.1005400054975345 169.36471730521473 5.3070281519368345 170.06179934537965 6.609999999999999 170.05 L 193.4 170.05 C 194.70297184806319 170.06179934537965 195.90945999450247 169.36471730521473 196.55 168.23000000000002 C 197.2096606600488 167.11707224556196 197.2096606600488 165.73292775443807 196.55 164.62 L 103.14 4.75 C 102.48663375033978 3.635740114533367 101.29168980353457 2.9511952639521963 100 2.9511952639521963 C 98.70831019646543 2.9511952639521963 97.51336624966021 3.635740114533368 96.86 4.750000000000001 Z" stroke-linecap="round" />
</g>
</g>
</g>
</svg>